<svg height="512pt" viewBox="-31 0 512 512" width="512pt" xmlns="http://www.w3.org/2000/svg"><path d="m77.324219 272.277344v-240.058594c0-15.566406-12.664063-28.230469-28.226563-28.230469h-8.425781c-15.566406 0-28.226563 12.664063-28.226563 28.230469v240.054688c-7.328124 3.328124-12.445312 10.699218-12.445312 19.253906v181.898437c0 21.269531 17.304688 38.570313 38.574219 38.570313h12.621093c21.269532 0 38.574219-17.300782 38.574219-38.570313v-181.898437c0-8.554688-5.117187-15.925782-12.445312-19.25zm-49.996094-240.058594c0-7.359375 5.984375-13.347656 13.34375-13.347656h8.425781c7.355469 0 13.34375 5.988281 13.34375 13.347656v238.160156h-35.113281zm47.558594 441.207031c0 13.0625-10.628907 23.691407-23.691407 23.691407h-12.621093c-13.066407 0-23.691407-10.628907-23.691407-23.691407v-181.898437c0-3.453125 2.808594-6.265625 6.265626-6.265625h47.472656c3.453125 0 6.261718 2.8125 6.261718 6.265625v181.898437zm0 0"/><path d="m370.128906 0h-23.34375c-12.050781 0-21.855468 9.804688-21.855468 21.855469v184.65625c0 13.484375 10.96875 24.453125 24.453124 24.453125h8.070313v254.066406c0 14.417969 11.730469 26.148438 26.152344 26.148438h7.582031c14.417969 0 26.148438-11.730469 26.148438-26.148438v-254.066406h8.070312c13.484375 0 24.453125-10.96875 24.453125-24.453125v-126.78125c0-43.964844-35.765625-79.730469-79.730469-79.730469zm32.324219 485.027344c0 6.210937-5.054687 11.265625-11.265625 11.265625h-7.585938c-6.210937 0-11.265624-5.050781-11.265624-11.265625v-254.0625h30.117187zm0-268.945313h-30.117187v-51.980469c0-6.210937 5.054687-11.265624 11.265624-11.265624h7.585938c6.210938 0 11.265625 5.054687 11.265625 11.265624zm32.523437-9.570312c0 5.277343-4.292968 9.570312-9.570312 9.570312h-8.070312v-51.980469c0-14.417968-11.730469-26.148437-26.148438-26.148437h-7.582031c-14.421875 0-26.152344 11.730469-26.152344 26.148437v51.980469h-8.070313c-5.277343 0-9.570312-4.292969-9.570312-9.570312v-184.65625c0-3.84375 3.128906-6.972657 6.972656-6.972657h23.34375c35.757813 0 64.847656 29.089844 64.847656 64.847657zm0 0"/><path d="m257.285156 3.992188h-102.28125c-17.394531 0-31.546875 14.332031-31.546875 31.949218v.382813l11.9375 116.160156c.214844 17.429687 14.28125 31.546875 31.542969 31.546875h7.515625v301.820312c0 14.417969 11.730469 26.148438 26.148437 26.148438h7.585938c14.417969 0 26.148438-11.730469 26.148438-26.148438v-301.820312h11.015624c17.261719 0 31.328126-14.117188 31.542969-31.546875l11.898438-115.78125.039062-.761719c0-17.617187-14.152343-31.949218-31.546875-31.949218zm-37.835937 481.859374c0 6.210938-5.050781 11.265626-11.261719 11.265626h-7.585938c-6.210937 0-11.265624-5.054688-11.265624-11.265626v-301.820312h30.113281zm42.601562-334.535156-.035156.761719c0 9.410156-7.476563 17.066406-16.664063 17.066406h-78.414062c-9.1875 0-16.664062-7.65625-16.664062-17.066406v-.378906l-11.929688-116.105469c.183594-9.25 7.585938-16.71875 16.660156-16.71875h102.28125c9.074219 0 16.476563 7.46875 16.65625 16.71875zm0 0"/><path d="m178.195312 45.640625c-.328124-4.09375-3.898437-7.15625-8.011718-6.820313-4.097656.328126-7.152344 3.914063-6.824219 8.011719l7.546875 93.980469c.3125 3.894531 3.570312 6.847656 7.410156 6.847656.199219 0 .398438-.007812.601563-.023437 4.097656-.328125 7.152343-3.917969 6.820312-8.015625zm0 0"/><path d="m242.105469 38.820312c-4.113281-.332031-7.683594 2.726563-8.011719 6.820313l-7.542969 93.984375c-.332031 4.09375 2.722657 7.683594 6.820313 8.011719.203125.015625.402344.023437.601562.023437 3.839844 0 7.097656-2.953125 7.410156-6.84375l7.546876-93.980468c.328124-4.097657-2.726563-7.6875-6.824219-8.015626zm0 0"/><path d="m205.128906 39.902344c-4.109375 0-7.441406 3.328125-7.441406 7.441406v90.335938c0 4.109374 3.332031 7.441406 7.441406 7.441406 4.113282 0 7.441406-3.332032 7.441406-7.441406v-90.335938c0-4.113281-3.328124-7.441406-7.441406-7.441406zm0 0"/></svg>