<svg height="512" fill="#f7f7f7" viewBox="0 0 512 512" width="512" xmlns="http://www.w3.org/2000/svg"><g id="solid"><path d="m29.657 285.657 11.143-11.138a216.019 216.019 0 0 0 428.665 14.7 8 8 0 0 0 -15.813-2.442 200.019 200.019 0 0 1 -396.62-10.432l9.311 9.312a8 8 0 1 0 11.314-11.314l-24-24a8 8 0 0 0 -11.314 0l-24 24a8 8 0 0 0 11.314 11.314z"/><path d="m482.343 226.343-11.14 11.14a216.018 216.018 0 0 0 -428.663-14.7 8 8 0 0 0 15.813 2.442 200.023 200.023 0 0 1 396.622 10.441l-9.318-9.319a8 8 0 0 0 -11.314 11.314l24 24a8 8 0 0 0 11.314 0l24-24a8 8 0 0 0 -11.314-11.314z"/><path d="m256 264a8 8 0 0 1 -8 8h-32a8 8 0 0 1 -8-8v-48h-32v112h112v-112h-32zm-32 48h-16a8 8 0 0 1 0-16h16a8 8 0 0 1 0 16zm48-8a8 8 0 0 1 -8 8h-8a8 8 0 0 1 0-16h8a8 8 0 0 1 8 8z"/><path d="m224 216h16v40h-16z"/><path d="m304 212.281v106.638l32-26.666v-101.305z"/><path d="m218.422 184-24 16h99.156l24-16z"/><circle cx="256" cy="384" r="8"/><circle cx="224" cy="384" r="8"/><circle cx="288" cy="384" r="8"/></g></svg>