<svg id="Capa_1" fill="#f7f7f7" enable-background="new 0 0 512 512" height="512" viewBox="0 0 512 512" width="512" xmlns="http://www.w3.org/2000/svg"><g><path d="m256 0c-99.528 0-180.5 80.968-180.5 180.491 0 44.225 15.999 84.778 42.5 116.198v195.286c0 16.013 17.959 25.547 31.223 16.553l106.777-72.386 106.776 72.387c13.259 8.989 31.224-.53 31.224-16.553v-195.286c26.501-31.421 42.5-71.973 42.5-116.199 0-99.523-80.972-180.491-180.5-180.491zm98 454.255-86.776-58.829c-6.777-4.594-15.67-4.593-22.447 0l-86.777 58.829v-122.263c28.241 18.329 61.897 28.99 98 28.99s69.759-10.661 98-28.99zm-98-133.271c-77.472 0-140.5-63.025-140.5-140.493s63.028-140.493 140.5-140.493 140.5 63.025 140.5 140.493-63.028 140.493-140.5 140.493z"/></g></svg>