<svg id="Layer_35" enable-background="new 0 0 64 64" height="512" viewBox="0 0 64 64" width="512" xmlns="http://www.w3.org/2000/svg"><path d="m31 41h-3v10h3c1.654 0 3-1.346 3-3 0-.768-.29-1.469-.766-2 .476-.531.766-1.232.766-2 0-1.654-1.346-3-3-3zm0 8h-1v-2h1c.551 0 1 .449 1 1s-.449 1-1 1zm0-4h-1v-2h1c.551 0 1 .449 1 1s-.449 1-1 1z"/><path d="m42 47c0 1.103-.897 2-2 2s-2-.897-2-2v-6h-2v6c0 2.206 1.794 4 4 4s4-1.794 4-4v-6h-2z"/><path d="m57.914 53.5 3.114-3.114-3.028-.606v-9.78c0-1.654-1.346-3-3-3h-1.117l1.019-8.154c1.212-.385 2.098-1.508 2.098-2.846v-2c0-1.302-.839-2.402-2-2.816v-1.184c0-1.654-1.346-3-3-3h-4.413c-.775-.465-1.645-.783-2.576-.918l-6.435-12.87c-.681-1.364-2.052-2.212-3.578-2.212-.617 0-1.235.146-1.789.422-1.973.987-2.775 3.395-1.789 5.367l5.105 10.211h-15.05l5.105-10.211c.986-1.973.184-4.38-1.79-5.367-.553-.276-1.171-.422-1.788-.422-1.526 0-2.897.848-3.578 2.212l-6.435 12.87c-.931.136-1.801.453-2.576.918h-4.413c-1.654 0-3 1.346-3 3v1.184c-1.161.414-2 1.514-2 2.816v2c0 1.338.886 2.461 2.098 2.846l2.472 19.774c.311 2.497 2.445 4.38 4.961 4.38h13.653c.414 1.161 1.514 2 2.816 2h22.18l1.206 6.028 3.114-3.114 5.5 5.5 4.414-4.414zm-30.914-16.5c-1.302 0-2.402.839-2.816 2h-17.801l-.5-4h46.235l-.25 2zm-13-19c2.757 0 5 2.243 5 5s-2.243 5-5 5-5-2.243-5-5 2.243-5 5-5zm30 0c2.757 0 5 2.243 5 5s-2.243 5-5 5-5-2.243-5-5 2.243-5 5-5zm-5.736 9h-18.528c.794-1.135 1.264-2.513 1.264-4h16c0 1.487.47 2.865 1.264 4zm-27.851 2c1.051.631 2.275 1 3.587 1s2.536-.369 3.587-1h22.826c1.051.631 2.275 1 3.587 1s2.536-.369 3.587-1h5.28l-.5 4h-46.734l-.5-4zm-3.78 12h17.367v4h-16.867zm48.367-15c0 .551-.449 1-1 1h-4.264c.794-1.135 1.264-2.513 1.264-4h3c.551 0 1 .449 1 1zm-2-6v1h-2.295c-.216-.723-.546-1.396-.969-2h2.264c.551 0 1 .449 1 1zm-18.897-16.789c.962-.479 2.205-.064 2.684.896l6.003 12.005c-1.37.24-2.602.878-3.576 1.793l-6.005-12.01c-.493-.987-.092-2.191.894-2.684zm3.422 15.789.327.655c-.231.424-.417.875-.558 1.345h-16.59c-.141-.471-.327-.922-.558-1.345l.329-.655zm-16.312-14.894c.479-.959 1.722-1.375 2.684-.895.986.493 1.388 1.697.895 2.684l-6.005 12.011c-.973-.915-2.205-1.553-3.576-1.793zm-15.213 14.894h2.264c-.423.604-.753 1.277-.969 2h-2.295v-1c0-.551.449-1 1-1zm-3 5c0-.551.449-1 1-1h3c0 1.487.47 2.865 1.264 4h-4.264c-.551 0-1-.449-1-1zm4.554 24.372-.171-1.372h16.617v4h-13.469c-1.51 0-2.79-1.13-2.977-2.628zm19.446 4.628c-.551 0-1-.449-1-1v-12c0-.551.449-1 1-1h28c.551 0 1 .449 1 1v9.38l-5-1v-2.602c.569-.237 1.054-.65 1.342-1.225l1.553-3.105-1.789-.895-1.553 3.106c-.211.421-.895.421-1.105 0l-1.553-3.105-1.789.895 1.553 3.105c.287.576.773.989 1.342 1.226v2.202l-1.275-.255 1.054 5.273zm26.5 2.086-1.886 1.886-1.339-6.697 6.697 1.339-1.886 1.886 5.5 5.5-1.586 1.586z"/><path d="m44 26c1.654 0 3-1.346 3-3s-1.346-3-3-3-3 1.346-3 3 1.346 3 3 3zm0-4c.551 0 1 .449 1 1s-.449 1-1 1-1-.449-1-1 .449-1 1-1z"/><path d="m14 26c1.654 0 3-1.346 3-3s-1.346-3-3-3-3 1.346-3 3 1.346 3 3 3zm0-4c.551 0 1 .449 1 1s-.449 1-1 1-1-.449-1-1 .449-1 1-1z"/></svg>