<svg id="Layer_1" enable-background="new 0 0 510 510" height="512" viewBox="0 0 510 510" width="512" xmlns="http://www.w3.org/2000/svg"><g><path d="m427.5 0h-15c-45.491 0-82.5 37.009-82.5 82.5v67.5c0 41.355-33.645 75-75 75s-75-33.645-75-75v-67.5c0-45.491-37.009-82.5-82.5-82.5h-15c-45.491 0-82.5 37.009-82.5 82.5v112.5c0 41.355 33.645 75 75 75 24.813 0 45 20.187 45 45v45h-60v30h30v75c0 24.813 20.187 45 45 45s45-20.187 45-45v-75h30v-30h-60v-45c0-41.355-33.645-75-75-75-24.813 0-45-20.187-45-45v-112.5c0-28.949 23.551-52.5 52.5-52.5h15c28.949 0 52.5 23.551 52.5 52.5v67.5c0 57.897 47.103 105 105 105s105-47.103 105-105v-67.5c0-28.949 23.551-52.5 52.5-52.5h15c28.949 0 52.5 23.551 52.5 52.5v112.5c0 24.813-20.187 45-45 45-41.355 0-75 33.645-75 75v45h-60v30h30v75c0 24.813 20.187 45 45 45s45-20.187 45-45v-75h30v-30h-60v-45c0-24.813 20.187-45 45-45 41.355 0 75-33.645 75-75v-112.5c0-45.491-37.009-82.5-82.5-82.5zm-277.5 465c0 8.271-6.729 15-15 15s-15-6.729-15-15v-75h30zm240 0c0 8.271-6.729 15-15 15s-15-6.729-15-15v-75h30z"/></g></svg>